


<svg id="Layer_1" xmlns="http://www.w3.org/2000/svg" version="1.1" viewBox="0 0 1800 810">
  <path class="st0" d="M1677.3,695.4V111c0-69.9,122.7-111.1,122.7-111.1h-345.7s122.7,41.2,122.7,111.1v584.5c0,69.9-122.7,111.1-122.7,111.1h345.7s-122.7-41.2-122.7-111.1ZM1185.1,360.1h-58.5c-67.7,0-106.7-23.4-106.7-115.1V21h138.7c224.6,0,300,233.2,300,233.2L1401.8-.1h-592s108.5,44.1,108.5,106.4v138.5c0,85.7,71.8,129.8,137.5,130.2-88.5,23.8-137.5,81.6-137.5,180.8v139.7c0,55.8-31.5,82.5-69.3,82.5s-58.8-18.4-116.6-161c-36.7-97-70.1-142.3-198.7-142.8,54.1-.5,121.9-50.4,72.2-175.2L488-.1h-197.4c81,22,111.9,70.6,111.9,70.6l-237.9,600C121.5,772.6,0,810.1,0,810.1h295.1s-76.3-28.1-90.3-59.8l.2-.2c-8.6-19.6-6.5-43.6,6.1-71.7v-.2L428.6,131l84.4,209.8c31.3,89.5-35.6,137.6-154.6,137.6,131,0,216.1,22.5,259.7,131.6l39.2,96.3c27.9,70.8-105.8,100.5-105.8,100.5h583.6s-115.5-37.1-115.5-107.9v-152.7c0-144.2,84.9-164.8,129.6-164.8h78.1c101.1,0,198.3,97.4,198.3,97.4l-138.2-233.9s16.7,115.4-102.4,115.4Z"/>
</svg>
